<svg width="16" height="16" viewBox="0 0 16 16" fill="none" xmlns="http://www.w3.org/2000/svg">
<path d="M10.332 7.66667H9.66537L8.66537 9.66667L7.33203 5.66667L6.33203 7.66667H5.66537M7.99417 3.42387C6.66123 1.8656 4.43853 1.44643 2.76849 2.87334C1.09846 4.30025 0.863345 6.686 2.17483 8.3736C3.16543 9.64827 5.97956 12.2073 7.29737 13.3833C7.53963 13.5994 7.66077 13.7075 7.80257 13.7501C7.9257 13.787 8.06257 13.787 8.1857 13.7501C8.3275 13.7075 8.44863 13.5994 8.6909 13.3833C10.0087 12.2073 12.8228 9.64827 13.8134 8.3736C15.1249 6.686 14.9185 4.28525 13.2198 2.87334C11.521 1.46144 9.32703 1.8656 7.99417 3.42387Z" stroke="white" stroke-linecap="round" stroke-linejoin="round"/>
</svg>
