<svg width="38" height="35" viewBox="0 0 38 35" fill="none" xmlns="http://www.w3.org/2000/svg">
<path d="M10.4766 1.5752L0.116483 31.5526C-0.360939 32.9848 0.68939 34.4171 2.1694 34.4171H14.8688C15.8237 34.4171 16.6353 33.8442 16.9218 32.9848L18.8983 27.2462L10.51 2.85946C10.362 2.41546 10.362 1.97146 10.4718 1.5752H10.4766Z" fill="#CFDAFF"/>
<path d="M37.6316 31.5526L27.3241 1.5752C27.4339 1.97623 27.4339 2.41546 27.2859 2.85946L18.9023 27.2462L20.8789 32.9848C21.1653 33.8442 21.9769 34.4171 22.9318 34.4171H35.5835C37.0635 34.4171 38.1138 32.9848 37.6364 31.5526H37.6316Z" fill="#7795FA"/>
<path d="M27.3209 1.57549L27.2684 1.42749C27.2397 1.34156 27.2015 1.2604 27.1633 1.18401C26.9437 0.744779 26.5713 0.386712 26.113 0.186195C26.0557 0.162324 26.0032 0.138453 25.9459 0.119356C25.9125 0.109807 25.8838 0.100259 25.8504 0.0907103C25.774 0.0668392 25.6929 0.0477423 25.6117 0.0334196C25.5926 0.0334196 25.5735 0.0238711 25.5497 0.0238711C25.4398 0.00954845 25.33 0 25.2155 0H12.5781C12.4635 0 12.3537 0.00954845 12.2439 0.0238711C12.2248 0.0238711 12.2009 0.0334196 12.1818 0.0334196C12.1007 0.0477423 12.0195 0.0668392 11.9431 0.0907103C11.9097 0.100259 11.8763 0.109807 11.8476 0.119356C11.7903 0.138453 11.733 0.162324 11.6805 0.186195C11.2222 0.386712 10.8498 0.735231 10.6302 1.18401C10.592 1.26517 10.5538 1.34156 10.5252 1.42749L10.4726 1.57549C10.3628 1.97653 10.3628 2.42053 10.5108 2.85976L18.8944 27.2465L27.2827 2.85976C27.4307 2.41576 27.4307 1.97653 27.3209 1.57549Z" fill="#B9C9FE"/>
</svg>
